<?xml version="1.0" standalone="no"?>
<!DOCTYPE svg PUBLIC "-//W3C//DTD SVG 20010904//EN"
 "http://www.w3.org/TR/2001/REC-SVG-20010904/DTD/svg10.dtd">
<svg version="1.0" xmlns="http://www.w3.org/2000/svg"
 width="300.000000pt" height="300.000000pt" viewBox="0 0 300.000000 300.000000"
 preserveAspectRatio="xMidYMid meet">
<metadata>
Created by potrace 1.10, written by Peter Selinger 2001-2011
</metadata>
<g transform="translate(0.000000,300.000000) scale(0.100000,-0.100000)"
fill="#878282" stroke="none">
<path d="M835 2740 c-245 -39 -477 -204 -516 -368 -17 -70 -11 -249 12 -361
39 -194 144 -472 239 -632 22 -37 40 -69 40 -72 0 -2 -24 2 -52 10 -104 27
-161 28 -206 3 -86 -48 -84 -137 5 -221 88 -84 195 -127 342 -137 l96 -7 3
-60 c13 -320 89 -503 241 -580 108 -54 278 -72 356 -36 115 52 180 213 192
474 6 134 7 137 27 131 81 -27 164 -31 248 -13 59 13 118 40 137 62 10 13 17
12 54 -9 214 -121 409 108 556 656 78 291 107 492 92 639 -28 264 -136 414
-346 477 -123 38 -383 21 -547 -35 -49 -17 -51 -17 -98 6 -26 12 -76 29 -111
38 -67 15 -225 19 -294 7 -26 -5 -68 -1 -120 10 -98 22 -270 30 -350 18z m283
-28 c6 -2 12 -8 12 -12 0 -4 -24 -3 -52 2 -52 10 -227 6 -245 -5 -5 -3 -27 -8
-48 -10 -73 -9 -210 -72 -265 -121 -16 -14 -32 -26 -35 -26 -3 0 -16 -12 -30
-27 -88 -98 -100 -132 -100 -283 0 -111 5 -152 31 -265 8 -38 17 -74 18 -80 1
-5 4 -14 7 -20 13 -22 43 -121 40 -134 -1 -7 2 -10 8 -6 6 3 12 -3 12 -14 2
-30 3 -32 27 -78 12 -23 22 -49 22 -57 0 -8 3 -16 8 -18 4 -1 27 -43 51 -93
25 -49 57 -109 73 -132 31 -46 27 -55 -25 -56 -64 -1 -239 26 -223 35 14 8 57
5 73 -5 14 -9 116 -17 135 -11 21 6 17 36 -7 64 -8 8 -13 17 -13 20 0 3 -24
55 -54 116 -30 61 -52 116 -50 124 3 7 0 10 -7 6 -6 -4 -12 -2 -12 3 -2 19 -4
25 -24 76 -10 28 -23 56 -28 63 -6 8 -6 12 1 12 5 0 1 17 -9 37 -10 21 -19 44
-19 53 0 8 -7 35 -16 59 -8 24 -13 50 -10 58 3 7 2 13 -3 13 -26 0 -40 359
-14 367 7 3 10 10 7 18 -3 7 0 25 8 39 21 40 129 157 139 150 5 -3 9 -1 9 5 0
25 174 104 280 126 52 12 301 17 328 7z m137 -27 c11 -2 41 1 68 5 32 4 47 3
47 -4 0 -6 -10 -12 -22 -12 -13 -1 -36 -5 -52 -8 -16 -4 -36 -4 -45 0 -17 8
-33 12 -56 17 -8 2 -18 7 -22 11 -4 5 8 5 27 1 19 -5 44 -9 55 -10z m293 -4
c4 -11 -2 -12 -24 -6 -16 4 -55 7 -87 6 -33 -1 -57 2 -54 6 3 5 40 8 83 8 56
0 79 -4 82 -14z m762 -2 c95 -22 119 -31 171 -71 20 -15 39 -25 43 -23 3 3 4
2 2 -1 -2 -3 12 -21 31 -40 31 -32 77 -115 88 -161 3 -10 11 -45 19 -77 18
-70 15 -350 -3 -384 -6 -11 -11 -32 -11 -46 0 -29 -45 -230 -59 -261 -5 -11
-14 -45 -21 -75 -19 -86 -72 -240 -81 -234 -5 3 -6 -2 -3 -10 3 -9 1 -16 -6
-16 -6 0 -8 -5 -5 -10 6 -9 -23 -73 -74 -163 -40 -72 -54 -88 -68 -83 -8 3
-11 1 -8 -5 16 -25 -94 -98 -151 -100 -44 -2 -126 20 -119 31 3 4 -5 10 -18
14 -14 3 -34 -3 -57 -18 -37 -24 -115 -55 -140 -55 -8 0 -35 -2 -58 -6 -27 -4
-41 -2 -38 4 3 5 -3 7 -14 4 -12 -3 -48 0 -81 7 -55 12 -61 11 -74 -6 -13 -17
-14 -16 -15 24 0 23 3 42 8 42 4 0 23 -10 42 -22 30 -19 49 -22 145 -23 109 0
162 11 193 42 8 7 18 11 23 7 5 -3 8 -2 7 3 -1 4 5 21 13 36 l16 29 26 -31
c15 -18 39 -36 54 -41 46 -16 123 -28 117 -19 -3 5 2 9 10 9 28 0 106 72 152
140 32 49 74 133 74 150 0 6 4 9 9 5 6 -3 10 3 10 12 -1 29 58 183 66 175 5
-4 5 -2 1 5 -3 6 0 29 8 50 8 21 17 47 21 58 4 11 10 36 12 55 2 19 7 37 11
40 7 5 13 23 17 50 8 62 29 159 34 155 4 -2 6 12 6 31 -1 19 2 34 7 34 5 0 6
9 3 20 -3 11 -2 20 3 20 6 0 8 64 7 158 -3 200 -6 218 -42 291 -13 24 -23 50
-23 57 0 7 -24 37 -53 68 -29 31 -51 59 -48 63 3 3 1 3 -5 0 -7 -4 -22 2 -35
12 -65 50 -140 71 -274 75 -95 4 -225 -9 -262 -24 -14 -6 -23 -6 -23 -1 0 11
37 20 150 35 127 18 176 17 270 -5z m-685 -5 c39 -9 47 -13 39 -25 -3 -5 -11
-6 -17 -2 -7 4 -15 8 -19 9 -5 1 -10 3 -13 4 -8 4 -24 7 -40 9 -8 0 -15 6 -15
12 0 6 8 8 18 5 9 -3 31 -8 47 -12z m-455 -14 c84 -18 106 -19 191 -9 127 15
229 1 320 -44 l66 -32 46 17 c135 50 375 73 499 47 170 -36 284 -154 329 -339
21 -89 16 -277 -10 -405 -88 -427 -198 -725 -317 -861 -53 -60 -142 -81 -204
-49 -15 8 -59 50 -96 92 -37 43 -89 102 -115 130 l-47 53 -36 -15 c-19 -8 -51
-15 -71 -15 -19 0 -35 -2 -35 -5 0 -3 17 -23 38 -44 32 -33 50 -42 116 -56
100 -22 146 -58 131 -101 -30 -85 -226 -120 -355 -63 -24 11 -52 26 -61 35
-15 13 -17 0 -23 -168 -8 -221 -19 -295 -51 -358 -72 -142 -201 -181 -379
-117 -164 60 -195 125 -240 492 -9 72 -19 145 -21 162 l-6 33 -57 -6 c-86 -9
-196 11 -278 51 -125 61 -180 150 -113 182 21 10 42 10 110 -2 98 -17 157 -19
194 -5 l26 10 -29 42 c-114 167 -242 475 -291 703 -47 214 -38 349 31 435 46
58 143 134 214 167 141 65 341 81 524 43z m710 -9 c0 -5 -14 -14 -31 -20 -23
-8 -30 -8 -26 2 2 6 11 12 20 12 8 0 19 4 23 8 10 9 14 9 14 -2z m-161 -15
c15 -8 38 -12 49 -9 12 3 22 1 22 -5 0 -17 -54 -18 -87 -1 -18 9 -30 19 -26
23 9 8 10 8 42 -8z m-1339 -1332 c0 -3 -9 -17 -20 -31 -29 -37 -26 -82 8 -118
15 -16 26 -34 24 -40 -2 -5 0 -7 4 -3 4 5 21 -2 38 -15 35 -25 87 -51 99 -49
4 1 7 -3 7 -8 0 -5 3 -9 8 -8 4 0 14 -1 22 -5 30 -11 116 -20 180 -18 64 2 66
2 68 -25 1 -20 -1 -24 -11 -16 -6 5 -46 12 -87 16 -117 10 -173 23 -232 53
-15 7 -29 12 -31 11 -3 -3 -59 40 -89 68 -10 9 -15 21 -11 27 3 6 1 7 -5 3 -6
-3 -16 3 -22 14 -6 11 -8 20 -4 20 3 0 1 7 -6 15 -16 19 -5 63 23 91 22 22 37
29 37 18z m1476 -107 c47 -53 61 -72 45 -62 -7 4 -21 9 -30 9 -37 4 -100 27
-111 41 -14 17 -15 17 20 32 38 17 44 16 76 -20z m-1011 -386 c3 -41 8 -78 11
-82 2 -4 7 -41 10 -81 4 -40 11 -77 18 -81 7 -6 6 -7 -3 -5 -21 6 -51 163 -54
286 -3 75 10 49 18 -37z m722 7 c-3 -7 -5 -2 -5 12 0 14 2 19 5 13 2 -7 2 -19
0 -25z m-74 -400 c-3 -13 -13 -29 -21 -35 -9 -7 -12 -13 -8 -13 8 0 -54 -64
-63 -66 -3 0 -15 -5 -26 -10 -29 -13 -187 -10 -210 4 -16 10 -9 11 45 6 36 -3
70 -7 77 -9 7 -2 15 0 18 5 4 6 19 10 36 10 16 0 29 5 29 10 0 6 6 10 13 10
15 1 70 50 92 84 21 32 25 33 18 4z m-514 -32 c-2 -2 -13 8 -23 22 l-19 27 24
-22 c12 -12 21 -24 18 -27z m61 -39 c0 -11 -39 16 -45 31 -3 8 4 6 20 -5 13
-10 25 -21 25 -26z m65 -25 c-7 -7 -55 8 -55 17 0 5 13 4 30 -2 16 -6 27 -13
25 -15z"/>
<path d="M802 2595 c-83 -18 -153 -52 -227 -108 -133 -101 -154 -166 -120
-377 21 -127 66 -280 125 -424 58 -139 169 -348 181 -340 5 3 0 22 -10 42 -35
69 -43 144 -29 294 9 106 9 156 0 226 -17 126 -15 173 10 239 64 173 221 352
373 425 l47 23 -43 7 c-73 11 -240 7 -307 -7z m258 -17 c0 -4 -6 -8 -14 -8 -8
0 -16 -4 -18 -8 -1 -5 -28 -28 -58 -51 -60 -47 -167 -170 -205 -235 -53 -93
-77 -168 -77 -241 0 -38 3 -88 6 -110 10 -66 15 -176 8 -171 -4 2 -6 -15 -4
-37 1 -23 -1 -78 -6 -122 l-8 -80 -32 66 c-49 104 -98 229 -122 314 -44 156
-51 190 -57 314 -5 100 -3 132 5 127 8 -5 10 -2 6 8 -4 10 6 27 24 45 16 17
27 33 24 36 -3 3 -1 5 5 5 6 0 26 13 44 30 19 16 46 36 62 42 15 7 27 16 27
20 0 5 3 7 8 6 4 -1 17 3 29 10 12 6 30 13 40 15 10 1 23 6 30 10 6 4 38 10
70 13 32 3 60 8 63 11 8 7 150 -1 150 -9z"/>
<path d="M1362 2580 c-227 -31 -417 -171 -532 -392 -22 -42 -40 -78 -40 -81 0
-2 39 -6 88 -9 108 -5 150 -27 187 -98 21 -41 17 -168 -9 -245 -26 -78 -176
-370 -218 -425 -27 -37 -33 -50 -22 -50 9 0 31 -15 49 -33 36 -36 35 -33 55
-241 14 -152 47 -390 61 -436 29 -95 102 -150 223 -168 144 -22 223 45 247
210 5 40 12 179 14 308 2 129 4 244 5 256 0 37 60 94 107 102 l42 7 -55 139
c-62 153 -74 221 -63 361 12 160 38 232 102 279 54 40 219 29 295 -21 13 -8
26 -12 29 -9 9 9 -17 137 -43 216 -84 250 -266 364 -522 330z m263 -50 c57
-27 87 -49 80 -61 -3 -4 0 -11 6 -15 8 -4 9 -3 5 4 -18 30 14 7 48 -34 54 -64
105 -173 122 -261 14 -71 15 -93 4 -93 -6 0 -9 4 -5 9 3 6 -3 10 -12 10 -10 0
-49 7 -87 16 -40 9 -84 13 -105 9 -42 -7 -103 -33 -113 -48 -5 -7 -8 -7 -8 -1
0 10 -20 -20 -41 -65 -7 -14 -22 -76 -33 -138 -21 -109 -21 -209 -1 -292 3
-14 7 -29 8 -35 2 -5 7 -16 11 -24 7 -10 5 -12 -5 -6 -10 6 -10 4 2 -11 23
-28 40 -74 33 -86 -4 -6 -2 -8 3 -5 10 6 43 -59 43 -84 0 -5 -21 -19 -46 -29
-27 -12 -48 -28 -51 -40 -3 -11 -9 -20 -13 -20 -21 0 -29 -85 -33 -340 -4
-263 -15 -370 -38 -370 -5 0 -8 -3 -7 -7 5 -17 -24 -52 -58 -73 -31 -20 -44
-22 -100 -16 -66 7 -146 35 -178 64 -26 24 -58 91 -52 108 4 9 2 12 -5 8 -8
-4 -10 6 -7 34 2 22 0 38 -4 36 -5 -3 -8 1 -8 8 0 8 -7 67 -15 133 -8 65 -13
121 -10 123 2 3 0 13 -5 23 -6 10 -13 64 -16 121 -7 112 -28 179 -63 197 -26
14 -26 25 -1 53 20 24 70 117 70 131 0 5 14 28 30 52 17 24 30 46 30 49 0 3
13 34 29 68 41 90 61 145 61 169 0 11 3 18 8 15 16 -10 6 158 -13 197 -21 44
-90 96 -140 104 -19 3 -35 9 -35 12 0 4 -18 5 -41 3 -39 -4 -41 -3 -34 19 4
13 16 36 26 51 11 14 19 29 19 32 0 17 83 115 93 109 5 -3 7 -1 4 4 -8 13 17
36 28 25 5 -4 5 -2 2 4 -6 11 18 36 46 47 9 3 17 11 17 17 0 6 4 9 9 5 6 -3
13 1 18 8 8 13 113 66 143 72 8 2 33 10 55 18 29 11 74 14 160 13 101 -3 128
-7 170 -26z"/>
<path d="M2030 2573 c-40 -6 -215 -45 -219 -49 -2 -2 13 -22 34 -46 47 -56
100 -165 126 -264 18 -68 22 -124 30 -396 9 -306 8 -319 -11 -372 -12 -30 -39
-74 -61 -99 l-40 -46 55 -58 c29 -32 77 -86 106 -121 85 -102 119 -108 189
-34 105 108 218 411 292 777 59 292 36 475 -77 595 -51 54 -120 92 -202 109
-50 10 -167 13 -222 4z m317 -61 c47 -23 133 -99 133 -117 0 -3 9 -27 21 -52
45 -99 50 -298 10 -468 -44 -191 -55 -236 -88 -345 -20 -63 -38 -119 -41 -125
-4 -5 -7 -15 -8 -21 -4 -26 -86 -202 -107 -230 -12 -16 -37 -43 -54 -61 -30
-28 -36 -31 -65 -22 -18 5 -41 19 -51 31 -10 13 -31 38 -45 57 -15 18 -42 47
-60 64 -20 19 -30 37 -27 46 3 9 3 12 -1 8 -7 -7 -34 10 -34 22 0 5 18 29 60
79 6 6 9 12 6 12 -2 0 5 24 15 53 12 31 20 76 19 112 -4 478 -7 540 -29 635
-26 108 -78 227 -122 283 -33 41 -34 40 46 58 147 33 336 25 422 -19z"/>
<path d="M787 1968 c8 -64 10 -210 4 -373 -2 -52 2 -109 9 -135 l12 -45 22 45
c13 25 46 88 74 140 64 119 102 232 102 302 0 93 -44 128 -160 128 l-72 0 9
-62z m159 18 c15 -12 17 -18 8 -33 -13 -21 -36 -27 -70 -19 -25 7 -49 40 -39
56 9 15 79 12 101 -4z m-98 -51 c32 -36 68 -42 102 -16 16 11 32 21 35 21 3 0
4 -20 3 -45 -2 -25 -7 -45 -11 -45 -5 0 -6 -4 -3 -9 15 -24 -139 -360 -157
-342 -5 5 -7 46 -3 93 9 131 11 310 3 341 -9 34 3 35 31 2z"/>
<path d="M1653 2010 c-53 -22 -82 -129 -82 -300 -1 -100 -3 -90 87 -335 28
-77 31 -80 58 -77 82 9 179 92 208 178 13 37 14 82 9 263 l-6 218 -71 28 c-75
30 -166 41 -203 25z m178 -42 c82 -33 81 -32 74 -112 -4 -39 -2 -124 5 -188
11 -101 10 -123 -4 -172 -9 -31 -31 -72 -48 -92 -30 -34 -113 -84 -141 -84 -8
0 -20 19 -27 43 -8 23 -26 69 -41 102 -15 33 -33 78 -40 100 -15 44 -18 210
-6 287 l8 47 35 -15 c21 -9 44 -12 57 -7 12 4 26 6 30 5 5 -1 6 2 3 7 -3 5 1
12 9 15 21 8 35 47 23 69 -11 22 -2 22 63 -5z m-81 -3 c17 -20 -29 -65 -66
-65 -26 0 -64 24 -64 41 0 35 104 55 130 24z"/>
<path d="M727 1203 c-41 -21 -125 -27 -202 -14 -37 7 -69 10 -72 7 -12 -12
148 -77 216 -87 72 -11 156 -6 165 10 12 18 -15 78 -40 89 -30 14 -31 14 -67
-5z m74 -34 c18 -35 -1 -42 -96 -37 -89 5 -138 23 -67 26 21 1 56 8 78 16 55
20 72 19 85 -5z"/>
<path d="M1557 1192 c-10 -10 -17 -32 -17 -49 0 -38 67 -104 126 -124 50 -17
159 -16 204 3 l35 15 -60 12 c-95 20 -137 43 -189 105 -51 59 -73 67 -99 38z
m109 -79 c35 -38 66 -67 69 -65 9 6 67 -10 60 -16 -11 -11 -90 -2 -130 15 -22
10 -56 32 -74 50 -32 29 -34 34 -23 57 6 14 16 26 22 26 6 0 40 -30 76 -67z"/>
<path d="M1435 360 c-3 -6 1 -7 9 -4 18 7 21 14 7 14 -6 0 -13 -4 -16 -10z"/>
</g>
</svg>
