<?xml version="1.0" standalone="no"?>
<!DOCTYPE svg PUBLIC "-//W3C//DTD SVG 20010904//EN"
 "http://www.w3.org/TR/2001/REC-SVG-20010904/DTD/svg10.dtd">
<svg version="1.0" xmlns="http://www.w3.org/2000/svg"
 width="675.000000pt" height="675.000000pt" viewBox="0 0 675.000000 675.000000"
 preserveAspectRatio="xMidYMid meet">
<metadata>
Created by potrace 1.10, written by Peter Selinger 2001-2011
</metadata>
<g transform="translate(0.000000,675.000000) scale(0.100000,-0.100000)"
fill="#58ac5a" stroke="none">
<path d="M0 3375 l0 -3375 3375 0 3375 0 0 3375 0 3375 -3375 0 -3375 0 0
-3375z m2170 1501 c8 -6 31 -19 50 -28 35 -16 136 -66 240 -120 30 -15 60 -28
67 -28 6 0 13 -3 15 -7 2 -5 401 -208 888 -451 487 -244 892 -447 900 -452 8
-5 80 -41 160 -80 80 -40 148 -77 152 -83 10 -16 10 -519 0 -533 -8 -12 -18
-18 -169 -93 -59 -29 -117 -58 -127 -64 -75 -38 -195 -98 -216 -107 -14 -5
-32 -14 -40 -18 -48 -28 -220 -114 -261 -132 -13 -5 -31 -14 -39 -18 -21 -12
-56 -30 -98 -51 -20 -10 -120 -59 -221 -110 -101 -50 -189 -91 -196 -91 -7 0
-15 -4 -17 -8 -4 -11 -507 -262 -524 -262 -7 0 -14 -4 -16 -8 -4 -11 -267
-142 -283 -142 -7 0 -15 -4 -17 -8 -3 -8 -212 -112 -224 -112 -4 0 -15 -7 -24
-15 -9 -8 -31 -16 -50 -17 l-35 -3 -3 273 c-1 169 1 280 8 292 5 10 23 21 40
25 16 4 32 10 35 15 3 4 53 32 113 60 203 99 417 203 432 211 21 12 212 105
230 113 8 3 22 10 30 15 8 6 182 92 385 192 204 100 390 192 415 204 167 84
212 105 253 119 20 6 14 26 -8 26 -8 0 -62 24 -122 53 -127 63 -352 172 -373
181 -8 3 -22 10 -30 15 -8 5 -80 41 -160 79 -80 39 -244 118 -364 177 -121 59
-229 111 -240 116 -12 5 -28 13 -36 18 -8 5 -91 46 -185 91 -93 45 -226 109
-295 143 l-125 62 -3 280 c-1 154 0 286 3 293 6 15 59 8 85 -12z"/>
</g>
</svg>
