<?xml version="1.0" standalone="no"?>
<!DOCTYPE svg PUBLIC "-//W3C//DTD SVG 20010904//EN"
 "http://www.w3.org/TR/2001/REC-SVG-20010904/DTD/svg10.dtd">
<svg version="1.0" xmlns="http://www.w3.org/2000/svg"
 width="289.000000pt" height="83.000000pt" viewBox="0 0 289.000000 83.000000"
 preserveAspectRatio="xMidYMid meet">
<metadata>
Created by potrace 1.13, written by Peter Selinger 2001-2015
</metadata>
<g transform="translate(0.000000,83.000000) scale(0.100000,-0.100000)"
fill="#000000" stroke="none">
<path d="M766 761 c-9 -14 -57 -20 -87 -9 -20 7 -34 6 -51 -4 -13 -7 -52 -14
-88 -15 -104 -2 -153 -18 -120 -38 19 -12 -10 -35 -52 -41 -42 -7 -58 -22 -37
-34 10 -7 10 -11 0 -24 -18 -21 -4 -39 25 -32 24 6 84 -17 84 -32 0 -5 -5 -13
-11 -19 -7 -7 -9 -19 -5 -28 5 -14 14 -16 41 -11 37 7 89 -15 100 -42 6 -17
-30 -69 -53 -76 -64 -18 -99 -17 -125 4 -28 23 -35 48 -16 67 24 24 2 42 -47
40 -30 -1 -49 2 -51 11 -6 16 -58 15 -75 -1 -22 -22 -55 -37 -81 -37 -35 0
-76 -35 -60 -51 15 -15 6 -39 -25 -65 -38 -31 -24 -58 26 -51 53 9 76 0 91
-34 15 -33 9 -52 -29 -99 -14 -17 -18 -32 -14 -44 6 -15 15 -18 54 -13 64 8
88 0 106 -34 11 -21 22 -29 42 -29 35 0 72 26 72 49 0 10 16 31 35 45 28 22
47 27 101 29 61 2 67 0 86 -25 32 -45 108 -31 108 21 0 26 42 61 73 61 16 0
30 8 37 20 8 16 4 25 -25 54 -29 30 -34 41 -29 63 8 33 30 53 60 53 12 0 28 7
35 16 11 14 10 18 -6 30 -10 8 -22 14 -26 14 -4 0 -10 7 -13 16 -10 25 20 64
49 64 35 0 40 17 10 36 -31 20 -32 40 -4 55 20 10 38 9 117 -7 25 -5 32 -3 32
10 0 10 9 16 25 16 16 0 25 6 25 15 0 8 -7 15 -15 15 -8 0 -19 9 -25 20 -8 15
-21 20 -56 20 -34 0 -50 6 -67 23 -16 17 -38 26 -79 30 -31 4 -59 3 -62 -2z
m-20 -267 c38 -18 61 -49 44 -59 -6 -4 -8 -10 -5 -15 10 -15 -36 -32 -91 -34
-45 -1 -56 3 -78 27 -27 29 -33 47 -16 47 6 0 10 7 10 15 0 8 12 17 28 21 15
3 32 7 37 9 21 7 38 4 71 -11z m-442 -62 c24 -18 22 -42 -4 -78 -21 -30 -47
-41 -111 -49 -51 -6 -59 -5 -78 16 -32 34 -11 74 61 114 31 18 108 16 132 -3z
m398 -95 c34 -25 43 -50 28 -77 -6 -11 -9 -24 -6 -29 8 -12 -45 -46 -67 -42
-10 1 -24 -2 -31 -8 -30 -25 -126 34 -126 78 0 29 28 77 52 89 51 25 106 21
150 -11z m-264 -44 c25 -28 29 -65 7 -83 -8 -7 -15 -18 -15 -26 0 -18 -53 -54
-80 -54 -12 0 -29 -4 -39 -10 -26 -13 -91 8 -91 31 0 9 -6 19 -13 22 -20 7 -9
65 14 78 11 5 19 16 19 23 0 14 59 43 100 49 40 6 73 -4 98 -30z"/>
<path d="M2085 658 c-5 -18 -65 -361 -65 -376 0 -7 13 -12 28 -12 28 0 29 1
42 86 10 64 20 94 38 115 30 37 75 39 97 6 13 -21 13 -32 0 -108 -19 -106 -20
-99 13 -99 29 0 29 1 46 100 14 87 14 105 2 133 -17 41 -61 62 -117 54 l-41
-5 7 59 c7 59 7 59 -19 59 -15 0 -28 -6 -31 -12z"/>
<path d="M2460 643 c0 -5 -11 -71 -25 -147 -31 -172 -31 -171 0 -201 18 -19
35 -25 68 -25 42 0 45 2 49 30 4 28 2 30 -28 30 -50 0 -57 17 -42 102 l13 73
46 3 c36 2 48 7 52 22 7 26 0 30 -46 30 l-40 0 6 45 c7 45 6 45 -23 45 -17 0
-30 -3 -30 -7z"/>
<path d="M1012 534 c-98 -59 -112 -217 -23 -254 30 -12 101 -10 134 4 27 13
21 -17 -10 -49 -25 -24 -33 -27 -73 -22 -39 5 -48 2 -58 -14 -17 -26 -9 -37
33 -45 48 -9 92 4 131 38 39 34 55 80 79 228 8 52 18 105 20 118 4 18 1 22
-19 22 -13 0 -27 -7 -30 -16 -5 -14 -8 -14 -28 0 -35 25 -106 20 -156 -10z
m133 -54 c25 -27 24 -83 0 -111 -63 -70 -155 -50 -155 34 0 78 106 131 155 77z"/>
<path d="M1276 533 c-3 -16 -13 -71 -21 -123 -9 -52 -19 -105 -22 -117 -4 -20
-1 -23 25 -23 l30 0 17 96 c20 110 36 134 90 134 32 0 35 2 35 30 0 25 -4 30
-24 30 -14 0 -36 -4 -50 -10 -17 -6 -26 -6 -26 0 0 6 -11 10 -24 10 -19 0 -26
-7 -30 -27z"/>
<path d="M1505 546 c-42 -18 -93 -79 -101 -121 -17 -93 30 -155 120 -155 30 0
60 6 72 15 25 19 35 19 28 0 -5 -11 1 -15 20 -15 18 0 27 6 31 23 7 32 45 249
45 259 0 4 -11 8 -25 8 -16 0 -25 -6 -25 -15 0 -19 -9 -19 -34 0 -24 18 -91
19 -131 1z m115 -66 c39 -39 14 -116 -47 -145 -92 -44 -153 57 -79 131 41 41
93 47 126 14z"/>
<path d="M1750 553 c0 -10 -58 -339 -65 -370 -5 -20 -1 -23 24 -23 28 0 29 3
41 66 10 54 15 64 29 58 9 -4 37 -9 63 -12 96 -8 169 57 176 159 4 56 3 60
-31 94 -30 30 -42 35 -81 35 -26 0 -60 -7 -76 -15 -27 -14 -30 -14 -30 0 0 9
-9 15 -25 15 -14 0 -25 -3 -25 -7z m190 -73 c44 -44 13 -127 -56 -150 -29 -10
-39 -9 -60 5 -37 24 -49 58 -34 95 27 65 108 92 150 50z"/>
<path d="M2345 538 c-7 -33 -45 -250 -45 -260 0 -4 13 -8 28 -8 l29 0 22 133
c12 72 21 138 21 145 0 6 -11 12 -25 12 -17 0 -26 -7 -30 -22z"/>
<path d="M2653 535 c-93 -56 -110 -194 -31 -249 29 -21 111 -20 154 0 42 20
48 28 35 53 -10 19 -11 19 -48 0 -50 -25 -79 -24 -108 6 -49 48 -37 55 91 55
l117 0 -5 52 c-4 42 -11 57 -37 80 -42 37 -108 39 -168 3z"/>
</g>
</svg>
